<svg xmlns="http://www.w3.org/2000/svg" viewBox="0 0 512 512" width="512" height="512">
  <defs>
    <linearGradient id="grad" x1="0%" y1="0%" x2="100%" y2="100%">
      <stop offset="0%" style="stop-color:#2563EB;stop-opacity:1" />
      <stop offset="100%" style="stop-color:#7C3AED;stop-opacity:1" />
    </linearGradient>
  </defs>
  <rect width="512" height="512" rx="128" fill="url(#grad)" />
  <!-- Document Sheet -->
  <path d="M160 96h144l96 96v224c0 17.7-14.3 32-32 32H160c-17.7 0-32-14.3-32-32V128c0-17.7 14.3-32 32-32z" fill="#ffffff" />
  <!-- Folded Corner -->
  <path d="M304 96v64c0 17.7 14.3 32 32 32h64L304 96z" fill="#E2E8F0" />
  <!-- Lines and Dollar Sign -->
  <rect x="176" y="240" width="160" height="24" rx="12" fill="#2563EB" />
  <rect x="176" y="288" width="120" height="24" rx="12" fill="#2563EB" />
  <circle cx="256" cy="360" r="32" fill="#7C3AED" />
  <text x="256" y="371" font-family="sans-serif" font-size="36" font-weight="bold" fill="#ffffff" text-anchor="middle">$</text>
</svg>
